<?xml version="1.0" encoding="UTF-8"?>
<!DOCTYPE svg PUBLIC "-//W3C//DTD SVG 1.1//EN" "http://www.w3.org/Graphics/SVG/1.1/DTD/svg11.dtd">
<!-- Created by sp v2.0, 2021-11-21 11:46:36 -->
<svg version="1.1" xmlns="http://www.w3.org/2000/svg" width="107mm" height="109mm" viewBox="-5 -3 107 109">
<g transform="matrix(1 0 0 -1 0 103)">

<g transform="translate(0,0) scale(1,1) translate(0,0) rotate(0) scale(1,1)" stroke="rgb(0,0,0)" fill="rgb(0,0,0)">
<g fill="none" stroke-width="0.2" stroke-dasharray="none" stroke-linecap="butt" stroke-linejoin="bevel">
<polygon points="1,11 86,3 96,19 80,90 43,100 25,97 7,46 "/>
</g>
</g>

<g transform="translate(0,0) scale(1,1) translate(0,0) rotate(0) scale(1,1)" stroke="rgb(0,0,0)" fill="rgb(0,0,0)">
<circle cx="1" cy="11" r="0.7" stroke-width="0.4" fill="white"/>
<circle cx="86" cy="3" r="0.7" stroke-width="0.4" fill="white"/>
<circle cx="96" cy="19" r="0.7" stroke-width="0.4" fill="white"/>
<circle cx="80" cy="90" r="0.7" stroke-width="0.4" fill="white"/>
<circle cx="43" cy="100" r="0.7" stroke-width="0.4" fill="white"/>
<circle cx="25" cy="97" r="0.7" stroke-width="0.4" fill="white"/>
<circle cx="7" cy="46" r="0.7" stroke-width="0.4" fill="white"/>
<circle cx="65" cy="33" r="0.7" stroke-width="0.4" fill="white"/>
<circle cx="74" cy="62" r="0.7" stroke-width="0.4" fill="white"/>
<circle cx="82" cy="37" r="0.7" stroke-width="0.4" fill="white"/>
<circle cx="45" cy="93" r="0.7" stroke-width="0.4" fill="white"/>
<circle cx="84" cy="34" r="0.7" stroke-width="0.4" fill="white"/>
<circle cx="47" cy="92" r="0.7" stroke-width="0.4" fill="white"/>
<circle cx="58" cy="31" r="0.7" stroke-width="0.4" fill="white"/>
<circle cx="18" cy="77" r="0.7" stroke-width="0.4" fill="white"/>
<circle cx="17" cy="30" r="0.7" stroke-width="0.4" fill="white"/>
<circle cx="23" cy="28" r="0.7" stroke-width="0.4" fill="white"/>
<circle cx="50" cy="91" r="0.7" stroke-width="0.4" fill="white"/>
<circle cx="89" cy="35" r="0.7" stroke-width="0.4" fill="white"/>
<circle cx="63" cy="41" r="0.7" stroke-width="0.4" fill="white"/>
<circle cx="52" cy="78" r="0.7" stroke-width="0.4" fill="white"/>
<circle cx="16" cy="26" r="0.7" stroke-width="0.4" fill="white"/>
<circle cx="42" cy="15" r="0.7" stroke-width="0.4" fill="white"/>
<circle cx="69" cy="53" r="0.7" stroke-width="0.4" fill="white"/>
<circle cx="20" cy="48" r="0.7" stroke-width="0.4" fill="white"/>
</g>
</g>
</svg>
